# xmcd
#
# Track frame offsets:
#	150
#	11218
#	27762
#	44874
#	58521
#	73989
#	86488
#	102709
#	118006
#	131242
#	150428
#	168265
#
# Disc length: 2354 seconds
# Revision: 2
# Processed by: cddbd v1.5.2PL0 Copyright (c) Steve Scherf et al.
# Submitted via: dBpowerAMP V12.0
#
DISCID=aa09300c
DTITLE=Krüger Brothers - Travel the Gravel
DYEAR=1998
DGENRE=Country
TTITLE0=It's Mighty Dark
TTITLE1=Don't Think Twice
TTITLE2=Alabama Bound
TTITLE3=Blue Ridge Mountain Blues
TTITLE4=Pretty Polly
TTITLE5=Mole in the Ground
TTITLE6=Doing My Time
TTITLE7=Friend of the Devil
TTITLE8=The Boatsman
TTITLE9=How Long Blues
TTITLE10=Where I'm Bound
TTITLE11=Two Dollar Bill
EXTD=
EXTT0=
EXTT1=
EXTT2=
EXTT3=
EXTT4=
EXTT5=
EXTT6=
EXTT7=
EXTT8=
EXTT9=
EXTT10=
EXTT11=
PLAYORDER=
